<mxfile host="app.diagrams.net" modified="2022-02-05T09:26:24.011Z" agent="5.0 (Windows NT 10.0; Win64; x64) AppleWebKit/537.36 (KHTML, like Gecko) Chrome/98.0.4758.81 Safari/537.36" etag="bwQzl08sXRNetGRvs8aD" version="16.5.3" type="github">
  <diagram id="Wfz3fiCM5hbgkHG5HI0v" name="Page-1">
    <mxGraphModel dx="1038" dy="489" grid="1" gridSize="10" guides="1" tooltips="1" connect="1" arrows="1" fold="1" page="1" pageScale="1" pageWidth="850" pageHeight="1100" math="0" shadow="0">
      <root>
        <mxCell id="0" />
        <mxCell id="1" parent="0" />
        <mxCell id="9XECiPMP4aSuoiCzD9ek-1" value="" style="shape=image;imageAspect=0;aspect=fixed;verticalLabelPosition=bottom;verticalAlign=top;image=data:image/png,iVBORw0KGgoAAAANSUhEUgAAAOAAAADgCAMAAAAt85rTAAAAkFBMVEX///8XFRUAAAAUEhIPDAwLCAjq6uoRDw8KBgb6+voGAADR0dHx8fHc3NzW1tYVEhLLysrm5uZFRERcW1vAwMBVVFS2trZwb29paGhkY2OlpKTa2tqysrKZmZnv7+92dXU7OjoeHBwxLy89PDwoJiZKSUmNjY2dnJyBgICqqak2NDTEw8MkIiJ0dHSJiIh9fX2ZaVQFAAAKVklEQVR4nO1daXerNhANAxjwvuEtJo7XxM6r/f//XcHYDTZoRqAFt9X90PNO44O4aKRZNXp7MzAwMDAwMDAwMDAwMDAwMDAwMDAwMDAwMDB4IbQb3cnXebbf+HCDdQpX0WI8+AjqfjdhtJarcHcl1XQ920ph217K1f8cHcaDut+xKto/h8+EhetZLNyIzhedf91UDhahB+AwqT3QbAJspuN/EcdBFEulb9PUfuElEzlp1/3mPAiOewC2VCJoQm/aqvv1KXRX8aKrwu6KXrzBLj7q5oBgHMZvKAYP3O9G3TwYmOzAF6SXwAaYvdfNpQCTz2orrwgA01fTjv0Tp07gpnh5JUFtzOXSSyl+1U3rjiCCpmx6VrIW1/26qV3R3YjunCx4MH0B82YlXzp/ATCumd77SdX0pbDhUiu/L5XTlwLWndroBXO105fCgWNN/DprHfwSMV3Vwu9HvXjeAcMadtMISjl8ggwt7QvxrEc873BAs6eoZXvJwoPJf5pf4gxrZLjXzy/ZTLWpi1Ed/GLomsOwJn66GK5q4xdLqQYH6rs+fgnDrmp+xzr5xfrQVRwc/qmXn2X5J6VW24dO+6wYMFPILzhVj1rLYxipIzgtFlD3muuTFhWNYTtporTwb+rM0iWD3/64XJxHG950GYVeTG04jY7LqHg8DxQtwwFjAd6+aNBZbCvmlbLwAabjW9CXITGqluFncebB2f7+pBFtxKYRIMxYK33Gnq3GKv1ijXbO/iqYbKrnz+LJe0i7tNfFMmODAm3YYWmI3JofD6smQHP5CIaMWs1QPsEhKzUG+d9OrKev0fPcJmTR9B2v9/ATB0b5sARjW1NhdjNNNGdY9PPfdEWSfQfnFM7/OkTHyTjGchF9z0bDa3WJf2cJ2yI7usMa1Za9kwZrltQ9LsF/0AjB85JZ260YFT/txvsyCq+FJnaTpb2ZliF8S2T3hvkQzB1t7KznC1onN37OewhZifkTczWD1Dhbg21js120NvdWx851zpiJObn7zAwhqDTZfKjyZcvjHXGSQGmqmWGtJXD38oYZsTO4dlNpXcsC+7Q/skZhbtb1EszaiGJAVmBs+isVUZZ9mE6hpFXI8iJuo9S1BuONdC5nEDyOpjbOdcHHlqML8TiM2mDsEHW+5JgzRKAQDjIGYYEI4kmxSPe4e+cq8Fz+wYAiuBQfA9MR6SDiYzDBdJfuX1eCskeMpRtBafo2jzlVIybBUCRDvTCVwKQYdJxZPEjapSbQU6kIMUMmHX0nOgRVbKA434PrQUuCKtwSUUBYSCHCxJAI0YmOT+2hMJLDg4kGsQxFtRSh5Xu+8sJjYhn2BBOGI7yOXkfhAyGkgloK/3yeJYkEBlb8/k5QyFQklISeqgfcVvQ2Is/Gl6DYs7lBTaHIs1m5gdujFauIO3BVJeTXE+6YpuNwaNxCaKP7aGJKyFfpKGWBhJ0tMVsYV/P6iuN2WDpOxGXC3TG1Me0sUJfNXldfKWhMy1NbkpMFXn4k4M5MMX+zqbIi5xHEIqy+jX5im6jaaNMDgg22CAUCM3jEV+OxohAzZgS8elWSURrsNKElEh0lRF/jUQY0uO5XjuATalDjGVRUTxSXQfCghRPU2LcA11d/qj4WN+N1EkStUbuyPzHGCWpsWYDOYHWHiSD4KmtQGcFX2UWVEVRe4f+Lv2ohqFHR40kYVQRfxVSrTpDwUvS1YghQq786QUIPSq73Q9Be95AXsZtVn4tbMr7qtMQv8Ex29eglbovKKzQigYtSdVv0A32urc+UweOGAvVAREhZ28FoIv5cXHPMAzQsqnEbxXu0CbwHvjtr22Vwx1skJkOcZlVZIZMFUS0jsFRwL0WbsUZUywi4NROCoJ4uIW0PXYLerrrnTZQgeH+0xLaJzyySm2hbeImDHnubqAYUkiM8P2i5lW2IEiArDkWSXLijqcfpJd9BxN6gyhllVU0jwCvGLUFlRReLKtcUVGeX6qb2FRRBR3WhBe6yWcJJLjTrcX2+wlPtb0nijDoSLChDZOsKW230kGwNYvfEAuzUHh0Lqa1Q2xM63pJg8ROa0FJaUflOt84QLvUg7O3rGKqS9QOO09zCCQSyZttSZnQP/tA9BySUyzFPJ2cZqqh5avH0VJBQLscho0nzQemppiNP65qehGIkeh9N4EouHW3PuFrzSIma4HmBO2yYS8z4jjk7e0r5rHgKJjMYHCRpxC5vM4zqyesHPAvLrR1FfmJhHUmg2B1xtzMRiIhm8bTNwHfsBAbdRZjvru0BrMTa1H8sN/wN821J9Y6PZzN67v3/d+YFkgSwjapyDCYzt0y/HWne6GN49O5BT77e+ruC9ekA+JfJoKSwfvSjLQAeSs99TFmXGjxqCu/WjnYVe2JBcSPOpO3UaR6N+RyNQX8xHfrlW15JbIXwmPzwbrHy9yD3p+yv0g45J8ICOKQ7llOhIZ3E5M9z5AJGqc5rjFpEM046sFi5mafUmvjnY3yQ+tFdgDZ6togn8XOq2MZL2gpM0H7+zF56Jmqxb2O2nPPJ8Wwy6sLgJzeglzO5M71M2Qfg+FYJ1iqDCVk68I4gd3TBu2Wwx623LUNIOVcJ1q2GCekV43mL1E+LEABarFOavKmLsPxlP15PMr+i3S6NGA5jf54RAOc1hSt0nVWQ9mn4uWKc6zIIogGjDILbkiJS1EX8VJzdz+8lmWhTUWt//nCCgxUyFUBJb8NCIb0lly7neI0y/0oDLxPJQ1FespEzhW9C2AYYJXcvZZwL2wXYc39mrrhPhp+q5hL5nfQWlfxOLJq3zuXPtS/j9T/7rxJ6isrSPcJZK+JX0Hjhro1aqTTGbvBhOrscFv1yVV6lmlsrbS6xf3LibftXDPsPl3kthzN+j5Anuvz7USU0yWGi/ezDZ65Figkmxk3/tIsS/wNKnOAn86zZEdV1d0nQzUWgftNz3Sj59yqmFgvrOSwRcy5BUEkQPYvnhJZtP20mwfGrdJSbn6DbU16a87ylO4541J7b3PY8DeeGn7dSdy28q/ES1HAbQ4Jnu8MTLhzlJNjTVf2X81CLOxDzg4+gre+kRo6hA5ulwFLkItjTeRIlbx17AOHh574FBJ3+Ysqf2eYhaKvs35ZHQbcsO72C3V2vb9kZ/hIkDkvG0303GPNuNzvG9R8Of+CZDqz5Og/zpVhSKViZBGFbw628LSLPVaJKjiIIYS23uTaGsk7c4ARtjU0lnjDFxFQWQV/vxXyPmCDZZkkEYVjrBfWDLXMSnS33wmGfLnPqE887DqxJLHH8jkkQTpq1XxE6jEkUJ+hKqqIQxtEpesESLZEKCdowrO8O5Sd8rAoubC9BsCCqZkOdm2cenXluKQoRBJBRUyQV/e2TZVOdYDx73zWYZiT64UN+wttUIxjTO9eq+hC0Zpn8RAlFn3GX3Fg4X3H27mgcdndJLaGig51zn7z9S20tRQjGo+RiLB/KVFP/APjJLYbnl1EMKILjPByVK6YeXMLworG9iYGBgYGBgYGBgYGBgYGBgYGBgYGBgYGBgYHB/xJ/A+HljiNdQqEOAAAAAElFTkSuQmCC;" vertex="1" parent="1">
          <mxGeometry x="20" y="320" width="90" height="90" as="geometry" />
        </mxCell>
        <mxCell id="9XECiPMP4aSuoiCzD9ek-2" value="" style="endArrow=classic;html=1;rounded=0;" edge="1" parent="1">
          <mxGeometry width="50" height="50" relative="1" as="geometry">
            <mxPoint x="120" y="360" as="sourcePoint" />
            <mxPoint x="200" y="360" as="targetPoint" />
          </mxGeometry>
        </mxCell>
        <mxCell id="9XECiPMP4aSuoiCzD9ek-3" value="" style="verticalLabelPosition=bottom;verticalAlign=top;html=1;shape=mxgraph.basic.diag_round_rect;dx=0;" vertex="1" parent="1">
          <mxGeometry x="240" y="251.47" width="450" height="358.53" as="geometry" />
        </mxCell>
        <mxCell id="9XECiPMP4aSuoiCzD9ek-4" value="" style="shape=image;imageAspect=0;aspect=fixed;verticalLabelPosition=bottom;verticalAlign=top;image=data:image/png,iVBORw0KGgoAAAANSUhEUgAAAL8AAAEICAMAAAA5jNVNAAABKVBMVEX////w1rfTODMjHyAzUGEAAAD35M1Jcovc2dhta22BsMTvPToAHR40UmT53r4iHyDYOTQiGxri394fHyDRODMeGhvl4uEWHh8AAAwaFRb1PjsVDxEbGBv/7dUAAA0VHh9FbIMMAAURDxUNHh8gFhPz3cLy8vLCNTEkIyYMChJCP0AuQk8qNj+fnp4ZFhq0My+OLSqqMS7Wv6TPz8+aLywmKS62tbVlY2PmzbCejXqsmYTJs5ozMDG4pI2FhIQsICE4ISIWAAB2aVy6ublzKSdQJCR8e3tJR0dXVVVcUkngz7p+cGKmpaVLQjyNfm1GIyNiJiaCKymtoJDLu6lpYFg7NTGekoSUk5NMJCNyk6NjfIk8P0R8o7VdJiW8rp1UTUhBUlpRX2hRaXVUu24xAAAgAElEQVR4nM1daUMaSRNWxzaw4nA5yGRQwyECIiYSDhU1EYMYjyQbDXsl2ez//xFvV3X3TM/JjGLy1pfNyvVUd91V3TM395RUzbS7uyejXm9MqdcbnUy6w1j1SX9yVpQbTsYGIaRoGLquIem6YRThT+OTYe5X4wui6nCkEWLoig/plDEj3v0/3YjumKLT/LCbRHm4uP6/Y6EdJ8R73ZMe+0BIvP2rEUuUOTFc4AulPBV5Uq8T/E+p5dyFxvBXw+Y0vCCGA3yJkO+33z6/X0J6//7z77d3BZIvydKlkcb/wx7sGsQh81qdXH1eWl9fkmid0vtvtzck30pKHMR/tR7skqJTuPOFL0s27DIXS9/O6sQSJYP8UiEaaoSvpImoXvJFz3mgLJC6+QFy8svQxy6Y5GhF0igKuZ+CnrPw+725CeTi16CvxtHkaAYZ77ZzbdiIArkKgZ4J0udLwYGh/AolmKDN0clg0s5lMrlrugHk5r0/+i2JGAvv70iBq3HsZ6O/RrXVybiby8RiueseUVr5373QU7jzXkS5WP98QzgDP9eQtgcE0feGgD6TO6GSRO5couODXOJh/Xe+BT/TDFV7oLYaGQ9zMYq+vTsoKq36Nwf6adgZqf370k9m4BoFn3p/hn4ypsaTfLcvfjjwjC7zP5OB6gUTnQlKTvukN6ZGiHyxoY8AHrbgjDPwM3SgjTaTjNuAPrbbi1/oSqH+ef3B6IGBq42fxcCEoLXYRdEZxntxuvql+631h0mOtQN1xsBT52YjgG8MYPFjsZNePN7Tlfr3B8q9zMAlKrFmPK0jiwP84jiGkh8HGij1u/VHiI5J92hG9cZTwj8B+CSOstPtAfyxLsN/4OIj9UsYVRvxp4PfRfgjhL+L8ONa6XI28OfVI+aJyfVTwc9J8CcMfsO4f7Tomwx84Qw8VSjU0GF7Zfg9vb41A9EHot+zfsd0uPY08EF69IuMBD9eI5bdfyx6oAEmE8WnyWd0+uVGG+Bfc/iD+tX6TIRHfMl78nReYEhAtzI01myziuZ4oLUCZH9q6OlcfcjvvyED+vgJ8NMwQbugeUo3buhY0NQUK9x3Yt2KtCdLmE9e3d1d/f5deyIVrtKVKXa7I82qUmkDH+FfEusZTilAdb+QfKnVKvGkXp+9E0DbbxR5lUo3DPovzRP+FgP/+cvt7bctNdTyr98RewGGzDqMmFg/QNN1fTyajAyFfPOBv770pUXqpVKeHIRgYInmYHb4SnEyU/QZzSxRGeSCputUD2JEMZj5sYk5wv+9XhcLeTudgaX1e61Vz+c3SgVzjZRZwm+b5UHDOGnnMPbM5C407X7dufwoPLI0kH4I+SHk7vBo//jgkpTEx2aYCWQEHJ2cxNB/ZaA3dEGTRk/4PJ/VWpQK+aOp+Lfm7/dV2CZV7d/ykpAxQx+m89VnORfloHvS69G8i+J/75AedKKAQKuT+7urq7t7MhW+jdQ+S4Y1bWbwR9zm0IQXcy4KHr3vmOL/7F7+e4C/MTjsq0jR4AMHt2SmLiAnCkzdHCQtIx47CPyO5V+HRFDLHzwAuMnAISZJswqj2fJrxhBkZ2KiF/htP7209Jn+dkHZfzh6YOA2P7sYospDKgqfZowSfMT/3mE712kEWVCmm5wpDNxQQ0pmg7/LpBECt6GMnuF3ui4afyXrj4U/Pw+p2IwUAIpTdDNzLviAv+7Av37XUsjxo4QHCTZgRgrAln8Yi7Ud8Kn91Bp2qFvrJaV193j4VIXrijGaBXxsStC4OZYZOeDHG1rrzIGV5h/5x0sPpT5RtJlUUqApoRiTjJlzWTRQ6s7orE9cf3oYqffabBQYrScYHxf8uKK4YgNViehuffFftWaTRaL6Gl7LH9c9wPZnoLyInyrATEI47M81chkX+niPhp9hwR6Hxn2wz/5xlJ+NAcJSfy/nMj5gPltXIfGrV2EZUA+4+donMwlB0fsao5yH+DS0+mFo/Ddh3/m7yBcIXbZZ4T/JnbjlZ6Dk90Nh2oLsPNxbIX5iCZtan4kBZebzJOeGH68p+XDJ+RKgcosajZMdTG1hBWuDvUoNqPFo+FgvB/PvFp+4poURCl6gIHnXKxS/IzfGugV3KhBBPNoBxFnsaUw8rH9cd3lff/jrd3mXX1MPNuwLwN55VWrhq5eFRxdRxrzoQHN2N/6eXgrhakWB6BtpuV47rNtjjSUuargB6lnrsfgvxESVN36tPt0omsX1da3uKqTs50vy3/h715VCQWUOuLj7GPgNcyDMGHma/zCVBRP/lzpxJWV5W7DH37t1UIcNUG9LNG55BAMMfjKL/stD/in+EDbRrE8vlbRW384AFfGSbJZ4KaxPkiXQDijCPJwBJjzJtT8oA9o491D81g4cbGgl+w5gjOP+Dir5lC31oM7yvofBHyP8bGL1dRnjH4q3MajVBo2xpb8h5Ac52ML5GXWguTjOKwXLBLFqS//odkBh7wNzyED3IfB7RQ7/+V6C/qMWu9A1Niem6Q2+F3oI/ZXpyIYWEV+VFNOuqod39618nuRBbupnAv+DolDmtgD+81XArxSl8UhNv0D8SilEaXa+L0pYKqYk9g3oQ5rO/6Qq1mRoS+mrxxuiEho5j79G+EkKf3l5O6G4SBsA/kHrcip+9ZIol7eHR/3+/vFNy5XwqGclpcCDcDD4jJL5G2qWAD82tLViRDfQ5vC3KfznnzYFaBwCzhdMBi60+vT1J0mlUKrn6Qexs+IsRvfzVFZuRcSM393KtzCspeKWfLMGf9EHkeDzemFiD+CL5S+Qmy+f379//+0SX9UaqMDTDZC9L1Fy7hiNIShTRyzi3L+kfGpnx0zgKP7yq6/IgBGpFMd6sInXFP7y8lqWyeD393wWeP0zLqROlbg2PVenMZqkOfUb9xuoUiii4EWtT9+smyL+1Bv8fRKhG9NDy1k+B/jPwXpSUZKHq9axRwsb0AijAIcDUi8VCoVWqe4RQ2OeZaqAjRj+1Ww2mhFiurv2Dlf/+Qf2adtgHmtW6eDB6tPgg9nZP7i6u7y8uzrse3GrHlAVKHlEskcbSnkvldpOoBKHDeVYqyWrLCOlUPrZ6q8vff7MZlPXb2D2sBfWAzPH5NsJUC/BLrklkdqfxN7CQuoVYtBDThij8CcTC2z590B8Ct8R9RWYnxvcCWiSa2MwQGET4EBK0t90F00B//YCZeC8HF4FRuh3E68Q/vLzl2A8oUe0tP49z8zQmUrT2QIoQENTSmELEIEEKuDKpcH/JlYXgAEuxCHcGLP8m+cM/vLzj9R8tWC8CtvjzIZQnd2C2BbiicJ0BQ5B2G+h0an9jwf1ZHkBabWcRJ8zHT/GONnTZUHAeR561Osbd0cHjIE8dTfCt3sajgcwcLsB3+X4WymZTSF+rgLTW9onTHpW+fKnUqcUP7ZIP5+pkFDUSV5DH8qcWImEi0CnMwDDhy1bcEfzr+wbhn8h9RGDAJIJhh9DVOVPHP7yaiqb5DMa72lCpGj5w/l9ivpWVQeERoqDW0+L+CAaFBzeWb1rZd9x/AsLShZ9TjD+BpMeE/4C4OfWB2JFqDeoR9ShqvP7R0f7849oMbqo39KYbpn4b7S1c4GfS1BwMsMaXab0wMeo/BTuOP6jPAaPdF1CTAREp32wbyUrwFALyuYnc/1THzEQCiwIFW22J8Utl4brvwX+kCXb+yRk3hWN2PRky1JiopRfm/gXVtfABgW1lFB5k5vLFvyF1FeKX1lnIw7H+QILEy9noLUes2Us4SUip9vH8MfEn2KRmH9Lg7V5hedaZp7j05pijmgckYGI08PVYoPIOTOEDEC6siHwC/drMvCBVUL88GOfKPvGEn7BNIw4wI/1iUiUDh4t/+6hp3lWsbKySbobiZSMfy8RFIiypAVTLiE9lOAzJYje4BvNauXjzY43fupgzI4OzSZN8y+rsF8cF4flX/sqSw98ZpM6gPt1nNFQ72bjbOdFTciF/7JglQTU+0L2ow3/wnbABuRsttPi+WsW4zfUtmNllvjdCiwXI+bn80nJfDIw57gBnrkkSv/aR7v0cAUoXa1vsfWZUWvx4LOX9kL9QRuIn3CYH2ZDMZXxikOrtuVftT4Ce5Yk/Odm5LbU0q1bdvq3pRL9JZGHYfS8bYcvNsDDBE3k5bd95F0WN2A2yBntk+/OKkT/Cub2Si0ziaGbkVxzLL+pAW4fIMedqVUZ/6syZjCPnOy30fGGve2t7p8B+gK5siybWtOk6M1ugtxtVYx8sn+4l59+JEllTrt/5Gy/A7+Udqrq0SVpUStHbuTiNE3J1j658IsNcOLHwBPrVbLyMvwvYQPqM8kTOUEdd5+n9Ee3ClT0tPzAyn9VJv4u9RXi7CpJY80hq3gtP/0Iht72MWB1/ugxIVA9mczf3R4cXF1u5OHMTovcS+j7Vxjk8uTXAQbF2ZkHnID2ll96Lb8VeksMqIclMni4SkPVXCmUKEG9s7WRvzuS0RMQrrri8L721bQnYkx7U07bKT7CapD5u3nTtdP9yoccjfeifqlVKGhQktsgpbNjSWvnb/N1iFKoiFnJiw0MlpPtGoxFh+xX7+WntIo9MLpQtyi1RzAdXLp7BP75/cvLm5vvl1cHx/tSDqeqB616EjwwRHJe4r8gNNjWmMfQh2uv10dECU8pEeX7d6Zvpa1I53XU22Nb1OdRkVPnD5Q6L6arJcVT/BdMDZaDIIIVt2W/5YfQtcyq0EqyUMBSTP29VwAfQH0QlL5fDRF29aoOdW1WkKHik/3ggwXzGFmAUHzWzn2XH3dAWVMkIu/XPSMwFy3xliiUqFobpHZ3cHzUN1ef70D/6PCswKpjGlbSIRJyBm8mrToFaCSJj/eeUQYWPiayJnx+amc6filOVg+wxoatmNL9zeXlGdIltcMkXzfvgWA+LK9g6dYbyleHABnTxId97NWbRJbfWkKWliLgFzJynDevDNHA+CDlb9W+2aIp5NGQQuqVVPywcAEya3FYtOKhm9/y4+dSrz4mymsS/ukKsMXepGLgqvYvieP+HGrUriz8JT71rQ40H+uJhAKk3Qv8u2D9y5i2Byw/42BhDxJ6VpAOj/+Y8IIFhDr1gh3/HcefbJEz/qkjFB9fMCyRN/sZOB/JnFcwfPwsmt+816kjT2KFI1IQAbPaP7ghG6WCeX0OFLAJ1Ys6uRPhm/q9ECA+woWZVxWg83ozVXw44eaVbtc9FMAru8H3UNuTNwNOVe0f314qJJ/fqFPKU87Ixv2Z1FuCOpZX7Gnix0KEqGSh9dz8FEJ82IehIq3deOBXrzwY2BLG0zY7A2Zz/+j48IDSMft/yQvTLN6detkwbCatM7Yo/sx6hoDPMwgvBVYPvKbhGIvq7cbGketV754YLL9H6iJjeCcpQM8S/xDiw62XpwLsBxy1U29aoQ7i8ZMXAdq74FAArLqdhhUfHj+1+Klf+y97zfII6pPkxv3x9II79RLTlp8nAcwDVK3gIRR8br1KXgpwW6/54zok1D0pLIINYgBuoQqU/gVuRFgdCNW3jKMCYcRHCBDWRJ0bQGM0/6MXeL+GVsrXYRplX1b1ft/6P0xtNv19F8dwiqVcS323Q4sPJSjEewvQbYn494PVG9b+K5TqGziOAgnYBl5vZ+GHTmoyO3UNmRGpmsHblNjH/uFPqMGeIVBLCyqt34gjqXaSFBsiB1vXwgcCa0tDCAeVh2Q5vPgs8BTU0wKpx0TT/PHTvNMV/9Dc3SptqFd1MCZTV5IpMJ4OQO/7Lrz6LvCEnnf1lpwIS62AmWiIf2jwwAZqNJxI0c4kv4AdpM2X0yUBjSDkMJb5CS3+XPx4DOcQIPW+UA8aiobg4e5eqec3Cvc3Z7e29Hd+HmcvphkfJDRAPR48o/mJgB/rwCUvDabGpK7lg6f6HMmX9MIV6odP3mtfwdMkmydg5hOih9Div8DqwEnvJAa6iAFGKIgvfntLUOhmAmARxNxcl5nPqPhhrEYEoU4Yx+RhBwj74uB4wrtwYgMgDOiuwaOfKOLDHaBPFgmJ7kMYuBeJTTI4+kH8LI3KscphIor3wo9vy1mAEwgc3o0uQjdi+YGBaTvAHUBsLq7D259HsJ7waSZ+PiYIrOhGqFsTpE/wG+zSac7AFBfGg5g2Rs/JZDTxT22zqVI22OTZiL6rK/kIp1DVY3bvQ7q5WOE6EKzEvKsynBtrPHkM731Tn8xKkGcUxxjIK6X7kGfIoS6BX5fuPHu2whkofwzMAHAur9jF8CH74Xn44Cf1ShHzxHBHhl8hCO7T00JlLKp6wOtCleazZxYDmx9WA0ChAtIAYsDDh5D4U3sfpDIcjG36SBC7AyF/M3UL1OMBj+oqi8+QXnAG1pRtf1QM/+5cTWGV81D4U6tWEZFrGvGxQZiwaNCSC5rQUtXj+zwfL06/ePbMzkC27G9HWQC0O4eMfnwexvyA4IsibkVZ5PtM/HfgSIE+AfGdMVPnDwYCvVJb3FlxMhBgRxn+iYl/uvqmXp2WedWp0lmxfqV+/9l1hYvAdwWtghK5O3KnjKp6dJa3LiBWaul0RUiQxIBfLBoVf2r7nRCdSpPvNN8Bjdx9Xl93ZgL9o+PD46PjS0DYIgMp74V/9A/PSnl3LuBiQEn4pJICv5D/KegXzl3oJVPRIvdf3q+vSyWoo+8kn6/XN0TCpZVI6+6WMnRE2YLqW90NHr/9hZMBHzsq5J/bn2BnkXq9tikkx0JPaUf8CsWXv6PRPL+x5ZgU3Ngw74WqoXVHkXUrfXKNnTOomQykBQNfvcAJ/Nz+B/uKD1zw08rKMzs1+a/Ajf/YmtgYfL+7ui153JbvpGShtLFxyt64lsh+PP8ATba0qcUvaumAHRD2/4L534BiqSQ6O89c1GHw27s6IQbeqlZotSCUSZYTifKanQ+rfdGqE+Py4Gj/BgdOEx+3n1PCLmFzcVFsQVPEEm4lNv1vT8Pqm3+t/VVWiE7zhRv+sxcMf3VuLtOdjMYNHR5wAZjWXq1uv/5YTmxa7u7+CmvOG3lyenYI+nwEvYBk4h2f2sGzHskViwEeDCXdGZkZ/2D8WX7uh546LC46aafoIHr6Y/CqfGNnFW7hTiZSz58v0zVdfXma2OS7UDhW948PD3FuV0UPTV/Y3Nx7LuZ9l+mPpRcpmTLEGHC38jj+toj//RZ/bU0svg96Sp003sdqHe+gOSmfRVhGFj6Vefc1f7kv5bxwS1Qy8XHZRI/T+ukd/NIXMgPucqhZAJqw/MsTfeo8aPFfLHJa2UnDbXaTTI6zQL+TzyJwFpah9Yc7QF0Zz98x4F8r7/GBNYpgdXUBBKi5IjOAIuSBn1Wgc+x0vlfFghpNZdN/8VcWLVpZBDNUVCbtDOWhSm2aNQIuWNjmcV9rg9ycXd1eXVHRz4rFNwemwKp0+FfzJWMOyoX/nOe/Q1Z/cL2eev1GtNwrrsV/IaNnHFAh0gzSu47hrXZiEE3mYO+0zLRRa0HhE8y2GBS31JMa6o755bgFsLnuXqRZf+DlZ+fMEo11BPqO0+y40DMhAnOtF8nFiKoUtqPYqq5SWkghBy9F+Jctg2XFtM8xrfkmq9Ssr1/h+N0FUTzVBvUfXn9zvP7VDJNdNv+FB3iJA7oLBhslsn/lKmXhOVUoYCHx7tXeJ7rS0LSyDy1ga11anhXmId2t+JTZACBu/Ui9EWFyOu1YfK+lN3+Mc6Cwgp7jF1dxD5a3P60lqLNapg4ouXa+sL0NdtaUHxRr22+86MBIvPccIs5wQMnR3mxl9XEPxfUUHAcHnbQPfpQhKkSvyqxaA1DXEonEm/NVCT+YRfuvgPi7Agip/hzH9p1tYlJMOZjRbDj0XIo6aR/81BUsb5+XcdKCQaByC3+U5AcMqO13fMTfqv+jAyjLAsYPzNplJxx6xkHNE//y3vkpFf8kTJmmWASTcIg/4q/ZTDPF7xU+nPPy2xw3oDKHDD/UMqYrrScDTWXzpcf6p1b3Pr2h+lt+DQIDUBPouCR08MfOiv27PKy/mIAAZ5lzGSA2H9R8wNKbawb20/2jGEycrzFxTv2RpV46ZV9aN/6adzsJAnrtQhp/kN7CTgxbmVA09Isgs9AQcf/oagp0OJtV6KrjmcxEyul3aFjQtC1X2rMfsGeaHzF+Im8iClfaNPyR8a+kAypKqXIye/r1KwaGCWfZmNp/Hr+ZS6Fk/3Dv5Eup/84U2H3QJx3G5nvj7ygJf/wwj5+lJk7X6LZ/er2dAhIvriXTtm9qerbDePU/J8+fuBTADHui42+mE6t+k4xouRWtqPUuiJZdKyfW/jh/+WpvewHYcIl/xzO4TGHeXOT5BiqAPKwIqkWp8wgF8DKg+NXnCXhsHBnsZnK59gUeOMuubZbLifLm6Zs/lCTNf+VvSnt2U9FCmhdc32tOBWACJDQ4Ov4VHMX3Kim9KyvGuN0dsguM8ZE9IlLRUKps4gPi7zEHx8TfvBvOpQBcgEwNjo6/CQmM2+tsn64pWiODFxgjZdo9Atv/tvL3v/9qbyH2kOUHxN+jBsoHKMUhjLbLA7A3mBocWQGYADnxp/YglzfwCmBY/CqwkYu1a1rtz9+A/vz7LRZQLPw1xeMMycICpIWabuarOD6clfEzJRMaHF2AFtPZN86aQOo1vwcBb9Fl6TJyYGh//8bpLwcDaY/YTUz/WAc52QSWbZ+wZJBuPlgBqAW1dx9SqY9UKCsVmFvj8Nuj9hzdgxxJm/h/+xMYML+Fir/HEDoPfqwnJXXdAoRvUSoPV4C0Xe9Se6ebip7+E/Dh8zMgcCFwkKuaIel/f5MZMD0YXQWP2I1N78lHYNCCJpMyfnZUUpQdoivAYjpZto4ep7ah7/EWYP6oMAmCwFHD09RVov+w8P/WTFsanPaM3VB8bGfAxi4BYgNOIoiLjp9qnkj6UqlXX2nUqVWYktJ8SWvk4ATdgGhVxF/5T15/a/lBfNyxG3e+8oO2mADJmsL620KAHqAAKEBAe58UKAW8/dsSEIVQ70V/lh0DzNnwd9Jm/IbO1y0+7C4I2wkqJkBl+V3bcgwxFb/HBqWVxOtXr2nKAjXc5FsLIpUgTclYRxgzpPKX+eJflbT8FR5nGPj0uf3pEphE2vaKCZCwQNPw77j+AotHwwJ+edDbPyUJr8BFFBmz3BiT8Ves5Qfn6xW7fXAdHxEHeGxJAPpoIUDBCrDSrDTd7xD9Byd8usZU/WIZ67etl39UrOzRJ3ZDyyI5L0aa5tRgLkAvwuBXtKZLxLAqCi0PJ3xU4eLErPdS/P/wF/55K0f/aa8TYMyyuy4SwSlKuwZjDMFjoCkKkKaxqotFqAalOztJ5e1fdvigwlQDcsyDUTtq4v9bsp3Av8cRGH4C2HmXET/+K20XjyE6IfDvAH6PPVqBglBa8q7SBpDrGJV8QjLU+L0VgvVWUl5v8WF1Z48DwOz0u80Hw7lTIUBB8GGlmn5CRqXnHxd+2IBGptqlHmwIW8//rKRlNfIUH5yd9ToBn2FnwOQsAF0At6CBdUO6xk3vTaKLKAcH1gak4T74apIMaPhe5Bv0X0Uu3Ta9xIedhfW8xQV9sG0DUIO5AgQqMMW/44kfQDiVl0sKlQFqQsEIjYr/eijvStJTfLA06PmQy7Z7A9DS1qYrgC9+sKEVD/i//XYKQsB8WI/7tr9tRnjHS3z48ns/3Aw6qbYNYJ6OKcA0/Ite70ETmv7XLf/oA4wRBhFzDWaf/pSVlxUe3NaHSb/3fZptlwnCNJIrQBD+RdYfc+PH7nb67Q8PBqgPM2K4AUUmYZo9c097iA8zPr7PFbpADZACVmzScAUIxl/xxL/IXJhSkaIfQTQKKu5CEFFl5l/2vGzn3LEPt/1+15myy6MkJ8xiiM50A5REIfPWX8ZBxenD/qEmdABhNA3fXNKDZU9X7MMC54BLyDCPlLUGLVBlOv6OD34RRHhx8C/1Yd0YNBDBfHZsph83zi4+EIkHXj8zJ65AKVt8o7marsD++HlrlXNgkyLqw+CRJnMT8gNMv2LfN1tPC7C//nR+Gnz9z5y4gKlsMo4xEEsiA/E3ffHbOXj7Q7JFEERQH9Yr/oWm31l1FtE8TT5fvkskypssFNfjQdc4GjgOYnKOCjBdgQPxMw74WG3l7b+mO6MmVO/lMjpV307aXvWEpkt5FcGvvnyT2MxKYyxG0COah0yFRSLDplQ6j8Rv2wPt7UAoAiSS7SFV3x8Ve9UQtBdiYcycpfkVTkF3qGEUwXi3PMA0BZ6K38ZBmooRbsIPnW7AbvEHtT329Ae19xWMAEizpgacU2LV0gAVZnG02TLAVgxT4Mfhl6UIXNrpf/+ACVX0gf4XlVnX8idPUy+zZQu9TuKZuWobn3ke+GS8a5sNQpNbmabAofAjB0kzqay8Hfw3QCwDh+dFp5H9oJQtoTfImC95GzU0SILQCwsvxhR40Q//Dis8BNhPBweiv42aIGb/lM6KRYv8HZbK6oSMrNtCqnC8MOgiTS5BSXb9GyRhzAB5eacaW7mV2nT8FsCmc7aPKu9Os9nsACnptO01Cr5ntzfsCcQBl/kyG7TGVAA9sJ8BguykA1vgHf8IwBQeUFNgrDnwdzoO0OYOucADTYpTvBi7QbaMkTTOeaR9DSj87s6KLX4WYoCIAWxakCdGf9LI4NrLV6GABF5GLK6vTtkMkJdQYIBfq/FC6SLCpqiTHHBUyDKRCz8ZgVQ98MFCVXF9eIpFEP4GdKXDf61CoTdrD1lmb9IcJiY2vDbZgUQl+CJTpgI0EEphuYhFQB74V1ZMXfQCrumGUSRuKhYN8TxMO6GPAielDdrWFWOxSYPY2EEBCnyyFnvUbDa7KkVA7pk3uuKea6cz1EajN5rsdoftdiaXqzLK5WLt4fXuaDygbKClTlegKcOe+z6qgljTGEAb50SBd0jf6XgGBlRrpzyYJM6evnC64GtAqZtxLTkDXuudXA9j0277phIB+UZzhRWY4Bf/KbsAAAfNSURBVKt4RzeGTx7kxfUG0cnY8V3dqQIkHt6RfWNFcA78OxWmpJUKsqFT5Mb45Lod8olpVXgMKbGmRJqKOVAClQRMbUDUDaK4TGh1ugBRI6SzHYCdrbnwr7xYaTZ3dhaZraxRg3zdjvSMhCo08ST8aIr5RABdXwML7G1CBl7Zbk2b/nDRKkYaTDAr7vW3z4RWIj8jBPBndAs/HoUQVh0e/AXFleuh9yLDmfepDxetWk/s8HQA8nRZxYj6sGfAnxto9vMW4la0sU5zezPmqbYp2RjBoeGpj6bKmQ9O8HZgKy9MFqI/aRLXf6yb+FGBRWpF8QkFrp4IC2z0dm0TA9MfaGAywCJoD/8F8g9cdCI/Khbxxy38EPSbRpEqBk2N8Z8Xg0bjojc62e22rZZTBnCF2HLBQNoXP+eiE+ZqeDf+kcGLG9S3dBRpJoBQ9QywwBmwvGGeLVc1mI9ZDM7AVpqRH5SG+E+M9OILNh64IhvQuYZmSB0+12czODIT5ierA3intwO244/4hBnEPzFszWrTgFIDI6q7XpSLdafGoCZBPsbaqAH4d9JRn1GE+HeLVskf8QtIu0V97I8/E4uFx4+x3BT89MeDqjK++K+LVurL8LfFj/IZA7rY3cnJ6GTSldwjtbzgwcLhR1vVmYo/6oPeEH9Xwo8OWLhBur4atuirDSlsjXer/KM5aFaEUzlWlZ6CfzEd1QEw/ESq/AB+cashjXCEA5ir5jIx8GDtISVgIEfxw7Hxou+Xy4T5cmVaBSgd1QFg/ENl05rWwChQ5LUE2ks+8hFj66+Fex5MNRT+mhbxSZlu/Jg6iNYWOjBv/Bh5UPkPu+Oh8HeiOgDE35bxYy4kvkWnDkxMKWZo+mMmQLj8aH/CPluXiAAosII49dEgU/FjKo1RfTWTqYEDi/lRphvh4epGKPxRDWiVL2PHgb8N6gmRqXHijz+HGWTIX9IEfn/4DzCgbvxNTIEnDGBD0+P++EF8Qhs8KDiGwB/RgCL+jGGdFuH4RxmBv5fLCAL5h/8Tyw/5S2iHD64OAujg8mw6pDmz4c9peFxWiCAaUIFfa3S73etd6nx744vBAB47ORky6YeQIHzAOwiDfyWsO7Tjp99t4scAQrvIxTK52PUARuyxUmQYus4qMkpv0gb4bSgehU9YAX96Kv5axAiU4b/QrM4Rw1/Lta97pGiryhRJY7Q7jOVQgHJDmBXzmYHwIpyLqDSDT/GAA4gUgTL5H+sO/HAIFOtamq7TpTdQpK5jTPhBE9ojzKki/FiPl8k6XlOSJv5mxGe1M/xx3TYuaS04GYzjo5OTEZX02mTYjuUgCOrujhoE61IkwnPVT8RDgNNNfw6o9EZ8VjviHxnSzA/HXyS9a9MXwqMQDSsCZTUdhcSDvtlBQ+sBlAEc7EQ1QIjfTMCgDsZ/ZNemR5r5CGVzd0jEJ+rKz5/05yAd2iFK+DGBwW5HkzfGdMfS5sYGLjyjopUFhKc2kdYgTSMWTw7SUyuSHvghAGXtDvH9Hm6wGhteUzcwollY6PKq/QviRHp6blrZ8eAADGgkAxTjAZyDHvKs3xAcTBRpE+geuKSIGtBoEZAXfiraEdPo8NSOyxy49IAa0MCmoDd+9qxPRUdDr+jjJ0MPVD2R/WK6YxMjakCD2vpuYnEOtOKI0ZvgNYDRH7MckaoTGwfpJjQATAMaLYJg+Guadj0Ev4qyH9GwPIDsHFAWOk3WxFgBAxRF93I8zlTYP8ahCyKPJTsH0HisUSZ26PpHUmAG+0KvZbgn/inrj7RbJM72J1rwSAqc4wEcxw8D/D8L/9xcd0Bcfl0Jn5ICsQCOBocsq4Io5WlsvzdRc2qeHbWcTwTvyANQQ2f4M8UoOcksqNodE2LYeIjifQT+IsMPChwxgp0BtSdjEd2CPEUBUOVqS/j60zA9YgQ7I6rGoLIagzQhTEvHJIGf1RQy0FP8OQbUB074lgL/AFt10o6ZodDPVGAXhetpWuTAn5s21fPUBB4oShubJ2BkyPGP9YgR4IwJq0oRNDDD8Xe5AgP/0VK42RKbCgn//hxzu6JOjj3RaCncjAl7UuEVgHfwirsZyQA9aQIwhSCEiaAAHL+o82NVM2oXcKaUCTEWJRHv4Jl1/naUoviTkBa6KYvEFp1XzBl+Z/Xk5xLG8OElmIWdok+R+fX4I0pABhed9SlywxOoc/9a+UEXHL6PihkM0S6G15P4gLDB+J8aQbsIStXhiwg5VkDRiDnOqv3KAG6ODWaGN4FogGpSJqr90vhtjrngCCFEjA9iMDLI4KnrP1OpEcmC8gQYmy6ExH/x4gPtRspiMzxq0wajbrTu/VMRDKuED4IzPGr7pWG/nQbhy2gsAe5GmMT4CbQbNohk8wMsavilUZudQICM6UGAQI8z0L+gbuJPYIGMwUngMHrOBJ/JxegHfmna6CAcrQZ72DjxHh6v8nANsHdPLqCSGqns8sRUFR0htOkXI/tJjCrGarlMjMU8LOiJMIvxE2gsVxQ1dhKmdtGD7iH0EEfx3sXAIEQ+wvOLozY7DV0tRXjar24I0nXNUXyP1E1/ehrwg0UhSSdRjz48NeWux0SIdjCBjvT+PyIHB4FpKbLGv01gNA0HY9iZCv1iFHUW4KdSFUZecP6rMYDpzlpt0Bj34jAHMPSdro1G/wPFj/5q024wdgAAAABJRU5ErkJggg==;" vertex="1" parent="1">
          <mxGeometry x="419.95000000000005" y="80" width="73.41" height="101.47" as="geometry" />
        </mxCell>
        <mxCell id="9XECiPMP4aSuoiCzD9ek-7" value="&lt;b&gt;&lt;font style=&quot;font-size: 16px&quot;&gt;Build Tool&lt;/font&gt;&lt;/b&gt;" style="ellipse;whiteSpace=wrap;html=1;align=center;newEdgeStyle={&quot;edgeStyle&quot;:&quot;entityRelationEdgeStyle&quot;,&quot;startArrow&quot;:&quot;none&quot;,&quot;endArrow&quot;:&quot;none&quot;,&quot;segment&quot;:10,&quot;curved&quot;:1};treeFolding=1;treeMoving=1;" vertex="1" collapsed="1" parent="1">
          <mxGeometry x="243.3" y="300" width="100" height="50" as="geometry" />
        </mxCell>
        <mxCell id="9XECiPMP4aSuoiCzD9ek-8" value="" style="shape=singleArrow;whiteSpace=wrap;html=1;" vertex="1" parent="1">
          <mxGeometry x="355" y="315" width="50" height="20" as="geometry" />
        </mxCell>
        <mxCell id="9XECiPMP4aSuoiCzD9ek-9" value="" style="shape=image;imageAspect=0;aspect=fixed;verticalLabelPosition=bottom;verticalAlign=top;image=data:image/jpeg,/9j/4AAQSkZJRgABAQAAAQABAAD/2wCEAAoHCBIPEhISEhEYEhISGBEYEhkRERIYGREYGhQZGRkYGhwcIS8lHB4rIRgYJjgnLS8xNjU2GiQ9QDszPy40NT8BDAwMEA8QHxISHjQsJCs/NDQ/OzQ9NDQxND80ND00NTo2NjE0NDQ7Oj0xPj80OjE6MTQ0MTU0NDY/NDYxMT8/NP/AABEIAMMAwwMBIgACEQEDEQH/xAAcAAABBQEBAQAAAAAAAAAAAAAAAQMFBgcEAgj/xABJEAACAQICBQUKCgkEAwEAAAABAgADEQQFBhIhMUEHUWFxgRMiMkJScpGSobEUFjM1YoKywcLRQ0RTc5Oz0uHwFSM0oiSDwxf/xAAaAQEAAwEBAQAAAAAAAAAAAAAAAwQFAQIG/8QAIxEBAAICAgICAgMAAAAAAAAAAAECAxEhMQQSIlFhgRNBQv/aAAwDAQACEQMRAD8A2aESEBYRIQFhEhAWESEBYRIsBIsSEBYRIQFhEhAWESEBYRIQFhCJAWJCEAhCEBYRIQFnNjMbToIXq1FpoN7OwUe3j0SL0kz5MAgsO6V3v3Kne17b3Y+KguLnsEzrE1amJqd0ruatTxdne07+LTTco9p4kwLrX07wqm1OlWr/AEkRVU9tRlJ9EaGntPjhMQOo4Y//AElfw2S1n2kBB9M7fQNs7F0bY76oHUhP3wJcae4fjh8SP/XSPuqGOrp1hONOuOugT7iZC/Fk/tR6h/OJ8WX/AGq+qfzgTy6b4Liaq9eFrn3KY4umuXn9M468Lih+CVw6M1P2i+hp5OjdT9on/b8oFpXTHLz+sgeclUe9Z7XSzLz+uUx1vb3yoHR2r5aelv6Y2cgrDinrH8oF3XSbAHdjsP24ikPeY8ue4M7sXQPViKR/FM/bIqvMp+tGXyGpxpqe1IGmpmNBt1emeqoh++PJXRtzKepgZk7ZA/Ggh7KcabIOfDJ6lOBsMWY1/ooXdQt5q290RaLUj3j1KTDilWqhHoIgbNEmaZdpVi8OQKh+F0+IbVWoo+i4sG6mG3nl4y7OqGJpGtTqAIl+6a3emkQLkOD4Nhz9e6BJAxjDYlKq69N1qLdhdGBF1YqwuOIII7JnmkulL4vWo4csmH2hnF1fEDmXiqe1ugb3NAMxFCs2FOxK/fUhuC1EXvlHnIoNvoHnkEZ6zf1hWjyaTk/jhpEIkJOslhEhAWN1aiorMxsqgsSeAAuTPchdL3K5fjCNl6VQdjLqn2GBnNfFvi6r4l761UjUU+JT8RB2G56SZZsqy5aIDML1DvPk9AkLklINVHMgv9w9/sloDQHVM9gxkNPQaA+DF1o0Gi3gOa0QmeLxC0BSZ4YwJngmAEzwxisY2xgIxjbGKxnhjA8tGqiBhYgEdIntjOHMcwp4ddZ7lm2Ii7WqHmA+/cOM5M65lyZiI3LgzSglFTU1tVBa4O+52ADiSebfIJVaoxd7orADuYYjXAN1NS2xiDtA2gdcfq1HrP3SqQSL6iDwaY6OdudvcNkWZ+fyd/GvTJ8rzJn406+/sQuylWRtV0ZXRvJdSGU9IuNo4i8We8Lh6mIqLSopr1G2gXsFHF3bxVHP2C52SrSLTaPXtQxRebx69tZyXMlxmHp112Bx3wvtRgbOp6QwI7JISE0ZyX4BRNPXLu7l6htZQxABCLwXYOk7Txk1Nqu9cvpa71G+3qESE66WQemnzfi/3be8SckFpr834v8Adn3iBTNHjtqHoT7/AMpOhpXtHm+U+p+KTgaB0Bp6DTnDT0HgdAeLrRgPF1oD+tELRnWi68Bx3ABJNgLkknYBzylY/Etj37ortTpUzfDFSQSw/TH3AHgTfwrTq0nxpeomE2pTZdeoTs7sNawRei4u3Wo3ExlJWzZJidQq58sxxVMZNmprg06gC16YGuBuccHT6J5uB2cxMiTKrXoFitSm2pVpm6Nbdzqw4qdxEmcrzEYlDcalRDq1UJ2o3Rzqd4PHruJJiye0antJhy+0ant3sY2TFJkJmmbEMaVCzVB4bnalHr8p/o+nhf3a0VjcpLWisbk7muarQ7xR3SswuqA2sPKc+KvtPCVtgzMalRtd23tawA8lR4q9Hpuds6UoBLm5ZmN3ZjdnPOT/AJbhPDiZ2fNN+I6ZPk57ZOI4g2DPQMbvFpUXrqWQlKQ3vxfbuTo+l6L7xBTHa86hUx4bZLah35Pl1XHVDSo2AXV7s7bVog7tnjMeC+kgTTclyajgqepSXabGozbXqt5TH7tw3ACVnk1oqhxaqNVQaFgPNbb0npl6mpiw1xxx228Hj1wxx39liwhJlgQhCAkgtNvm7F/u/wAQk9IDTj5uxfmD7awKLo+3yn1PxSaDyvZC3yn1PxSaDwOkPPQecweew8DoDz0HnMHnrXgP68XWjGtDWgc2dZcuKp6t9WovfU3t4Dfep3Ec3TaVfBYxlY06o1KiHVYHgeviDsIPEES460g9I8rNYd1pi9WmLED9Km/V84bSO0cZBmx+0bjtXzYvaNx3BUMbxFJ1Za1GwqoLWOxaqcUbo5jwPbInLMyFgGN1Pgk8OgyfpteVa2/uFOttTuO3PXzSpiRqUVeim6o7rquDxRBzjcX3c194ap4daahUFlH+EnnPTJBlkdjsWqbBtbm5uudyXm3Mu5rzbmTddwg29nTI+tX2FmIVRz7hGatYkgm7MxsoUXLHmUSayzJ9UipWsag2om9afT9J+ncOHOY8eK2SfwhxYLZp+oc2Aytq1nrArT8VDsZ+l+Zfo8ePNJnEgBCBsAAtbhHmM58Se8b/ADjNGlK0jUNXHjrSuqwm+TrwsZ52H+w0u8pHJ14WM87D/YaXie0hIRYQEhFhASQGnPzdivMH21lgle06+bcV5i/bWBneRN8p9T75MB5A5I/yn1PvkzSDOyqo1mYgKBxJ3QHw8kcPlOIqC4pEDney+w7fZLFlGSphgGYB6vFjuXoXm6959kl4FP8A9AxPMnr/ANozWyrEJtNJiOdCrewG/sl3hAzrW4cRv6IutLpmOV08QO+Gq/isvhDr5x0GUnF0GoOyMLMvoYcCOgwPWtDWjGtF14Fc0hy7ubHEUx/tsb1gPEbyx0HxvTzxnL8xKWV9qcD5P9paGIIIIuDsIPESn5lgThqgUfJPfuZ8k7yh6uHOOqU8+LXyr+1PyMP+6/tJY7NvFpnrb8vzkUgd3FOmuu7bbX3DymPir0+i52QwmHqYhtSnst4bkd7T6PpN9H02lqwGCp4dNVBtO12baznnY/duHCeMeGbz7W6RYsFsk+1ujWV5UuH79j3SqRZnI8EeSg8VfaeM7yYhM8Ey9EREahoRWKxqATGcR4Df5xjkbxHgH/OM66nOTrwsZ52H+w0u8pHJ14WM87D/AGGl4gJCEIBCLCASu6efNuK81P5iywyu6e/NuK81P5iQMwyZvlPq/fLtoXQD4hnO3uaEjoZjYH0a0oOVVLMw5wPYf7y/6A1h3WsnFkRh9ViD9sQL3K7pRmz4dUSmdV31iWsDqqLbr8Tf2GWGQmkWTfC0UqwWol9XW3MDa6m27cNv5wKcM1r3v3ep/Ee3ovaTmSaSPrrTrnWViAr2AKnhrW2EdMr2KyvE0L69FwBxC6y+stwJxB7wNelU0rr4d1XVqKayGwC99cE7VYjYLb9v3ytYnNa9YBXqsygAWvYHrA2HtnKHgdOtF15zh5K5Lkz4vvr6lIGxYi+seIUcevcOndA49eM4qglZGp1BdW37SCOIII3EHbeX7C6PYWmPk9c8TUOtfs8H0CdZyrDHZ8Hpfwqf5QM4w9JKahKahUXcB/m09Md1pc8Xo1h6gOoDSbgUJt6p2W6rSp5nl1TCuFfarX1HXwX6Ohuj3wGdaeZ4BnuARvEeAf8AOMcjWJ8A9nvgTvJ14WM87D/YaXiUfk68LGedh/sNLvAWJCEBYRIQCVzT/wCbMV5qfzUlkla5QfmzFdVL+ckDGqFbUYNzb+qWnJM0+DV6dYbVB78DxkYWPs29YEpxadWExmp3reDwPNA+gsPXSqiujBkYAqRuIjsxvKM/r4Q3ovdDtKN3yN2cD0ixlyy/Tyi9hXptSPFl79evyh6DAuU4cXlNCvfulJWJ8a1m9YWMTBZvh8R8lWRyeGtZvVO32SQgUzMtDrAth3N/IqcegMN3b6ZUqqtTZlZSjKbMGFiDNglW01ysVKRxCD/cpC7W8ZON+rf6YFRyvCnE1kpA21ztI8VQLsfQD22mpUKK01VFAVVACgcAJRuT+jrVa1TyEVR9difwe2X6BD5/m4wdMGwao5Ipqd2zeT0C49I65TzpLiyb92t0CnTt1bVv7ZOaVZPiMTWRqahkVANrqLNrMTsPRqyFGi2L8gfxE/OBaNHc7+FqyOAtVACbbnXdrAcNuwjpHPJPH4NcRTam42MNh4qeDDpBlZ0eyTE4fELUdAq6rqxDqdhGwWB5wvolxgZdUptTdkfYyMyt1g2uOjjAGS2ltHVxRYfpERj5wuh9irIhTA9Tmxj7AOePVKgUXPZ0zgdyxuYFq5OvCxnnYf7DS7zK9G9KMNlz4la7apqdxK9ICsD75acNp9gKhAFYC/PAtcIxhcUlZQ9NgyniDOiAkIsIBK1yh/NmK6qX85JZZWeUX5sxXVS/n04GHFpM4HRbH4i2phXseNRe5r13e1+yQRabjoFpCMfhlDtfEUQq1QTtbyX+sBt6QYFLocnGNVHdqtNHCsURC7F2AuFJsALnZfbKd8LqDYWII33AuPZPo6ZvpnoFUr1WxOD1dZ7mpTYhbtxZCdm3iDbbc32wM7XHVPK9glq0V0yxNGtRp1Khq0HZEIfaaesQAytvFr7t1ryCraL5hTNmwdYn6FNnHpS4lh0P0NxL4inVxFJqNGkyvaoNVqjKbqoU7QLgXJ4QNejVemHV1bwWVgeoixjsiNKMxGFwleoTZtVlTpdhqqPSb9QMCrcluKNQYoGwIGHOzp7p+U0GZDyb48UcZ3NjZa6lB5475fcw62E16BA51pPh8DUWnVDlmUMNRVIsWI4kcVM4Bp7g/Iq+on9UieUzAtrUcSBdNU03PkHWLJfoOsw7BzyjKYGofHvCeRV9RP6p6+PWE8ir6if1yl6K5L8OrFGLLSRS1Rkte52KoJBFybnduUy01dAKfiYlx+8RH+zqwIvSHPqWKemyI4CKwbXCjeQRazHpkScZzD0z1neVfAqwpGqKp1FclUKatyQARrHb3t+0TiWA+WJ2k3iRFiwM806/5K+YJXA5G4n0yx6df8lfMErYF4G2ciea1Ki1KTksq7r8Jr0zTkcyU0MMarCxqbuqaXAWEIQEkNpZgDicDiqSi7NTYoOdl75R2lQJNQgfL5aduTZvVwNZK9FrMuwg+C6nerDiDJnlEyhMHjX7mR3Otd1XyGJ75eq+0dduEqhaB9B6MaWYbMkHcyErAd/ScjWHOV8pekdtpYZ8uU6hUhlJVgbgqSCDzgjdLblfKHmOHAU1FrqNwrrrH1gQx7SYG7QmUUuVatbvsIhP0ajqPQQYziuU/FuLU6VKnfiQ7kdVyB7IGqY7G0sOjVKtQU0XeWPsHOegbZjul+k7ZjUAUFMPTJ7mp3sdxdunmHAdZkJmWbYjGPr4iq1QjdrHvV81RsXsE5lgdFCoyMrqSrIVZSN6sDcEdIIm1aLaQU8wohti1lAFZPJPlD6J4ejhMRWdeCxVSg61KTsjruZTt6ukdB2QN7r0UqKyOodGBDKwBDDmIMrNXQLBs2sDVQeSrqV/7KW9sg8t5RHUBcRQD28ek2qT1qdhPaOqS68oWEI+Sr9WpS/rgWPLcupYVBTooEXed5JPOxO0nrnnNcyp4Sm1WobAbFHF24Ko4k/33CVHGcoVwRQw5B4NWYbPqpe/rCVPH5lVxT90rOXbbq8FQcyqNgHtNtt4HrGYt8RUeq/huxY23LwCjoAAHZPCxpY6sB1Z6nlZ6vAzzTo/+SPMWcmimUtjcVSpgXGsL9Ub0jxXwjFVGXaAQq9Ntk1zkd0ZNJDiqi2ZvBuOEDTsswa4eklNRYKAPZOuEWAkIsIBCEIGN8smS1neniKakhRttwmZUMVrd641W5jx6p9V16C1FKuoYHgRKpmnJ5gcSSTTCk+TAwhY6s1iryUUPEqsvbOR+Sg+LiD2gQM2WOrL+3JXVG7EewRo8l+JG6uPVgUpY6stx5NMYN1ZfVE8Hk5xw3VEP1YFYWOrLB/+fZgPHQ9kT4iZkPIPYYEIseWSnxLzMeKh9b84DRLMx+jT0t+cCPWOrOv4sZmP0KH6zRfi9mQ/V1PU5/KBzrHVjq5FmQ/VV/iH8p7/ANFzHhhB21CfwwPCytaU5+tJWo0jrVG2MV8QcR1yfraKZtie872ih36m/wBMmtHOSmlRYVMQ3dG32MCi8n2g1THVFq1VK0lN9o8KfQmDwy0UWmgsqgAWhhMKlFQlNQqjcAJ0QCJFhAIQhASEWEBIRYQEhFiQCEWEBIQiwEhFhASEWEBIRYQEhaLCAkIsICQixIBCEIBCLCAQhCAQhCARIQgLCEICRYQgJFhCAQhCAQhCAQhCAQhCAQhCAQhCAQhCB//Z;" vertex="1" parent="1">
          <mxGeometry x="421.71" y="300" width="60" height="60" as="geometry" />
        </mxCell>
        <mxCell id="9XECiPMP4aSuoiCzD9ek-11" value="" style="shape=image;imageAspect=0;aspect=fixed;verticalLabelPosition=bottom;verticalAlign=top;image=data:image/jpeg,/9j/4AAQSkZJRgABAQAAAQABAAD/2wCEAAkGBwgHBhUTBwgWFhUVFxcYFhcYFx0eGRseFxcdGiIiJB8ZHioiJB8lGxgXITEiJSkrLi4uGB8zODMtNygtLi0BCgoKDg0OGxAQGzclHSU3LS0uLzU3MjUtNTUtLS0tLi01LTItLS0tNS0tLS0tLTUtLy0tLi0tLS0tLTUtLTUtN//AABEIAOEA4QMBIgACEQEDEQH/xAAbAAEAAgMBAQAAAAAAAAAAAAAABQYDBAcBAv/EAEsQAAIBAwEEBAkIBwMNAQAAAAABAgMEEQUGEiExE0FRYQcUFSJScYGR0TI0QnKSobGyIzM1YnOTwTbS8RckJVNUVWSCorPC4fAW/8QAGQEBAAMBAQAAAAAAAAAAAAAAAAIDBAUB/8QAJREBAAIBBAEDBQEAAAAAAAAAAAECEQMEEiExIkFREzJCYZHB/9oADAMBAAIRAxEAPwDuIAAAAAAAAAAAAAAAAAAAAAAAAAAAAAAAAAAAAAAAAAAAAAAAAAAAAAAAAAAAAAAAAAAAAAAAAAAAAAAAAAAAAAAAAAAAAAAAAAAAAAAAAAAAAAAAAAAAAAAAAAAAAAAAAAAAAAAAAAAAAAAAAAAAAAAAAAAAAAAAAAAAAAAAAAAAAAAABpalq2naUo+Ur2FPezu78ks454z617zdKB4T4QqajYqpBNOVbKayvkR6mSrGZiEbW41mVk//AF2zn++6H8yPxN3TdY03VXLybfU6u5je3JJ43s4zjtw/czmviFl0nzKnz9CPpNdnYS3gxhCnrd+qcEli14JYXGFR8kXauh9OM5Z9Hc/UtjDoQAM7UAAAAAAAAAAAAAAAAAAAAAAAAAAAAAKNrO3l5Ya5Wt7XRFU6FxTl0yjnegpcnDvfW+RqS8IuqRjl7NLC/wCJj/cIbW/7a3v1qP8A2TXr/N5fVf5Ua9PQramZYdXc3reawsVHwhatWoqVLZlOMkmn4zHk1nrh3kDtTtDqGrXttK60XoujlUwlWjLec48uSxjdfM+9J/Y9L+HH8kTBrn6+j/El+WZZG3rERaPPSudze0zWfHb3ypc7/wCyp/zIelnt7Sf8FlSVXWL5zpOLatvNbTxiNRc1w7yD+n7f/Jk74Lf2xfeq2/LUPNznh5NpMc/DogAMLpBEbTbQWmzmn9JdxcnKSjCEflSb6lnsXH/FEuc02yqyvNuYxm/Nt6CcV+/Ulxf2d33E9OnO0VV6t+FJsvujatZa1YRq6dW3oP3p9aa6muw3jklhfy2X1qNxReKFWShcw6ll4U/Wm+Pt7TrSeUe6unOnbjJpakaleUPQAVrAAAAAAAAAAAAAAAAAAh7nanQbW4lC51alGUW1KLksprqAgvCfc3dvaWysrypSc66jJ05OLw4vsKapao1/aG7/AJ0u/wCBN+ETX9I1Gnaqx1GnPcrqUt2SeFuvi+4gY31nufO4cvSXY/ia9CtJr6mLc3vFvS17OyrXGpVuk1Gq5YptybTlLMHzck+SWEbdfS5qhJ+UavyXw8zsX7vea+nX9nT1Cs6l1BJqlhuSw8Qknj1No37nU7DxeS8dp53X9JeivgaKxTj/AFltN5t/PZG6fSuXp9Nx1ColuR4LdwvNXDjHv+4+by3rzuqSqX9R5m+L3crzZcV5vd19p7YXtpDTqaqXME9yPByXopf0Pbi8tZXtFxuYtKcm3vLgt2XxRH08Y7+Pd76uU9fPs3/JNTfx5Tq/9HpY9Ej7OhdUNQreK6rXpvNNNwnuuXmJrO7jON54Jfyrp3SfP6fP016We0iqF3bLUKzdxHDlDDyuOIRT+8leKTh5SdSMz/jNc1tVo20pR2gu8xi5LNaXVFy7e46rsnWq3GzFtOvUcpSo03KUnltuCy23zZym61Cz8RmldQ+RJY3uvcaxjPHiXzZbajQbXZq2hX1WlGUaNNOLlxTUUmvYZNeKxji27a1pieS4HMtrKbttvG5rhWoRcX2uDaa9iWfaWi6292Zt1+1IyfUoRlNv7KaKZtVrVTaupS8n6bKkqUt6Neq8S48GlBdTwnxfHC5EdDlF4mIT3HGaTEzhj1Wi7nTakEstxaXr6vvwe0td2sVtGK1SnTUYqK3aSk3urHFzXPhxNe/1G3tUvGqyjnlwfHHPlntNOOs2dWe7auVSXVGEJOT9mDoatdK05tLnaNtWsYpHlN09sdptMjv3dSjXhHjJOO5PHc48PuZ0fRtQWq6XTrRoSgqkVJRljKT5cn1riu5rkc+0PY/UdbuIz16h0NvFpqi359THLex8mPdz/E6bFKMcRXA52rw5ejw6ejz4+vy9ABUtAAAAAAAAAAAPirUhSpOVSSSim23ySXHJ9PiuZAazsrR1qG7qOp3Eo+gpxjH2qMEn7cgb2h65p2u2aqabcKSwsr6UX2SjzTOUSo06utXjrUot+NVlxSfDe7y6UfBlodCopUK9xGS5SjUw17VHJQtd0uWl7TXFFXVXGYzjJ1HvSU4ptt9b3srPcX7eYi7PuImaJSvT022pb1zSpxXfGPwMsbW0nDMbem01waisPh6it+SLatxqTm32uWfxRmoadC2+b3FWPqnhfgdDNpn7Yw52KxH3TlP+J2ufm0Psr2dQdna4+aw+wvgRG5Wx8+q/aXwNetp8a6/T3NWXc55R7M/EPIj5slel0mdz0e7S3ufyY44vtxjJtu0tsPNtDq+gvgVnyHZ/ve9fA2qNrKgsUryql2b/AA9zRGs2/KIStFfxtKc8Std75rD7K+Bp1auk0rlU6kaW92bseHLnw4GhVt51lipeVWuzfx+CNTyJZ9svevgLTb2iCsV/K0rKrO0a+bQx9WPd3HqtLXrtod/mr4esr1HTadv+ouKsfVPH4Gw1VguN9V+0vgSifmqMx8WTdOlRorMKUY8OOEl+Bqq8pXWegqppPDwyCuLXxn9fc1JLsc8r3cjBb6I7zUadDTd7pajwnnhGPXJ46kskLas17x0sppRbrPa8+DzTY6pq9W7r006dNdDRyspvnOXH2JP959he9S1HTdDs3Uva0KcF7G+5JcW+5EJZ7D2tnaKnbaxeQivowruMePF4UVwy23w7TVr+DTRLmrvXNzcTl6Uqu8/e45Oba3K2ZdOleNcQtthd0r6yhVt5ZjOKlF9zWeozlc0bZC20RY0zUrmEee7vxlD7MoNL1pZLFFNR4yz3v/0QTegAAAAAAAAAAAAAAAHO/CrpkqcqV7Rhwh+irY9CTzF+pSbX/Mjohiu7ajeW0qdzTUoTTjKL5NNYaPazicw8tXlGJcSpTw+fBmcka2z9ts/qnQavOfRVH/m1bKUf4c8rhNdT5Pu5E3T2asIPjKb7t5fA6EbmuHOttrZVMzRdxTob1jaRqzVSG9CWM9HxbwpcOLSTeG45z3lypaDoqXnWz9s5/wBJY+4rGvafDTb5qkl0cuMP6r2P7sHsakanpjpGdOdP1T21b3o/GX0UElw81S3km0spS60pZSfWkYDzfj6R8urEvjqFE9y+w2lzMLqvqR8Nt82MmGSVX0TG3l8Tw8s6d3ql30WjW7qT62vkQXbKXJL/AO58CFrxWMyspSbTiHxWqyjJRo03OpN4hBcXJs6hsNst5BtXUvWpXFVLpJdUV6Ee5db633JHuyGx1voH6S5n0txJedUa4RXowXUu/m+5cC0HP1dWbz+nR0dGKR+wAFK4AAAAAAAAAAAAAAAAAAAAAa+oWNrqVpKlfUFOElhxfL/HvXFFMr6Bruz/AOxZ+NUFyo1JYqwXZGb4SS7H3JdpewexLyYy55R2q03pdy/c7ep1wrwcH73wx7Terqw1e13enhNPk4yTw+1NFuu7S2vaW7eW8Jx9GcVJe5ogbrYLZe5f6TSIL6jlD8jRKLYQmmVB1TRrrT5ZlHeh1TS4e3sIyU4x+VJL2nSP8m+y/wDsU/5tT+8Z6GwGy9B+bpSf1pzl+aTNEbqcdwzzte+pcpq31rSXn117Hn8DcsbHV9Uf+i9IqyT+nJbkPtSwn7DsNjoek6e82OmUoPtjTin70skgRtubT4Trtax5c30rwbV67Utor/h/qqOUvbN8X6kvaX7TdOs9LtVT0+2jTguqK+99bfe+JtAz2tNu5X1rFeoAAeJAAAAAAAAAAAAAAAAAAAAAAAAAAAAAAAAAAAAAAAAAAAAAAAAAAAAAAAAAAAAAAAAAAAAAAAAAAAAAAAAAAAAAAAAAAAAAAAAAAAAAAAAAAAAAAAAAAAAAAAAAAAAAAAAAAAAAAAAAAAAAAAAAAAAAAAAAAAAAAAAAAAAAAAAAAAAAAAAAAAAAAAAAAAAAAAAAAAAAAAAAAAAAAAAAAAAAD//Z;" vertex="1" parent="1">
          <mxGeometry x="550" y="285" width="90" height="90" as="geometry" />
        </mxCell>
        <mxCell id="9XECiPMP4aSuoiCzD9ek-16" value="" style="shape=singleArrow;whiteSpace=wrap;html=1;" vertex="1" parent="1">
          <mxGeometry x="493.36" y="315" width="56.64" height="20" as="geometry" />
        </mxCell>
        <mxCell id="9XECiPMP4aSuoiCzD9ek-17" value="" style="shape=singleArrow;direction=south;whiteSpace=wrap;html=1;" vertex="1" parent="1">
          <mxGeometry x="586.88" y="370" width="21.25" height="50" as="geometry" />
        </mxCell>
        <mxCell id="9XECiPMP4aSuoiCzD9ek-18" value="" style="shape=image;imageAspect=0;aspect=fixed;verticalLabelPosition=bottom;verticalAlign=top;image=data:image/png,iVBORw0KGgoAAAANSUhEUgAAAOEAAADhCAMAAAAJbSJIAAAAwFBMVEX///9fQ+lAQLJXN+j08v2gkfFZO+hRL+g+PrJ+fsg5ObC1qfTo5vvx8fpeQelcP+lUM+gvL678+//k4PvQyfg2Nq9vV+uIde4tLa3m4vucjPGYmNPl5fRtVOuXhvDw7f2IiMxJSba6r/XMxPdLJed/a+3CwuSmpthvVetQULhpacHZ2e+/tfXX0fl4YeyomvKOfO9lSep5ecZcXLzQ0Ou5ueCwpPRjY77Vz/mllvJGHOdUVLmEb+69s/WsrNuKd+6sTlJjAAAGWUlEQVR4nO2cbVvbNhSG5ThxjAO2YwgECuW1QEk7VtYNusH2///VJMfBViLLkmMj6Vzn/tIv5UI3lx+fY70RgiAIgiAIgiAIgiAI4j7X302PoG8mNyfnpsfQLxM/iCeZ6VH0ycT34vTs2vQweoQael6Sftk3PZDeyA09L0hPhqaH0hOFIXMEGsd3Q7BxLA2hxrFqyB7Vz+CqI2/oeT646rhu6MU+sDhuGNI4jkHFUWDIHAHFUWhIXznJX1DiWGMIKI51hnCqY70hfVR9CN+OMkMvDoKJ6QFujdQQRLPaYAggjo2GLI5OV0cFQxpHl6ujiqHb1VHN0OU4qhq626yqG7JXjotx1DGkcfzhXhy1DPM4urbQoWmYV0e3HlVtQy++2TU9aC30Db0xGtpFa8PhB35XZXd77X+4veHN4UFXBg3cXs6MGPpJevQRjdziYRoNzBjSyhGM+l6T27uYRYPQmCFtcpK3rlxEZHfRLByYNGTTHPf9xfH2ckr9DBuyb46j466UOBbP89zPuCFr5HqI494FfcEMLDGkcfQ6XpPL7sJZOLDHkDl2Wh1vv1b87DBk31WdxfH0YVr1s8WQxnHcSRz3LubRYGCloef5yfbN6t1sNljHHkO2CLBdHGkLGm4I2mSYx7F9s7p4mAv8LDPcolnNW1Ahlhmy6njVYiTLFtQJQxZH7eq4akEdMWTN6qtOdawLoMWG7JVzojqsvZ2NCuiCIY1jcKXSrGaiCuiEoWIcb79KAmi7oUKzulhvQV0zzONYXx0FLah7hmw/Z111bA5gJ4Zp34Z1zaq0AnZouP9bGvdsKFwiXzwr+21pSMi3H76eo75hvoGsGsfTHQ2/rQ3J8DEI+jbkmtVM0oL2YkjI7u9p0rNhXh2Xy8c/FSpg14aEvGjEsaUhfaue5L/rSfEN2q0hIW+JahxbGwaj/DftKNXA7g1J9uirxdFZQ+U4OmxIyHeVODptqFQdHTck2a+m6ui6IYvjWBpH9w1pHA9lcYRgKI8jDENZswrEUFIdwRjWxhGQIY2jJ4gjKEParKYbcYRlSMj5RhyhGW42q/AM16sjREO+OoI0JOS4jCNQQ1YdxzFsw/c4Ajak1ZHFEbLh8tsRtiGrjn8DNyTkCrzhEjQEYDjWXXfcwjAyYUhGiosA2xtGs08mBAnZP9JZk2ttGE6fTs0IUg4OtZaP2xiG0z9+GvOjZFeJzklpbcNwNvjTpB9jOBorx1HbMJp/suFE7vGrahw1DSOTAaRk5V/3WroI0NLQdADp41nZBpRdiWYdtzEMZ5fmA5iOK3vWhyO/+VFVN6QV0EiN5xj6MXeia785jqqGRitgCetLY25X3sFZQxzVDMPpP4YDWLDsvPldeQ1xVDG0oQIWrL4tkvSVi6OkOioY0gDaUAFzyq8nPo6SZrXRMJrv2BDAgsr3IduVV/7lD2qrY4Oh+QrIw30B83vWJ17NdZMyQxsqIM/aN36SHpXXZdQ0qzJD2oKar4A8G7MYSfWApbBZrTeM5k+2+Qnnabg7iAVxrDO0LYAFopmo2L+XNatiQ4sqII94rk1aHUWGoU0VkKduNlFSHQWGpr8BZdTOl7LrB8r/dnBfxnHD0NIAFkhmhPlm9S1YxXHNMJxFdgawQDrnnYwrccxWceQN7Q1gQcOsPneE5Pgo389ZNbSrBRXStG7Bn3d+YdWxNAynzwtD41aneWWGb1bfPP/d0LoWVIjK2hN3/cD5aFycKJlaHsACtdW1IK1Wx2/5P//aHsACxfXD2PfbXD9gA8orpHF6796lpwyNNWCuWXUHrVXuJHXwhn69dXx+KscNdHcqtLgNxDD6ezGSm0fTg9ai/W4TV0BDNLQfNERD+0FDNLQfNERD+0FDNLQfNERD+0FDNLQfNERD+0FDNLSf4ebFNcAM9Q9YOmdIyMuZ3v287hkSMtE5YOmkIduzrv6oOmnIduUpx9FRQ9kREiiGqgcsHTZUPGDptKHaeWe3DRUOWDpvmG+SlTq6b9hwwBKCYUOzCsJQehsIEMP8vDNww9rbQOAYErL7KmrIIRmKm1VYhqJmFZghjeOvtakccIYbzSpAQ/6AJUxDWh3fD1hCNSwPWII1pM3qf8s4wjVcVUfIhsvLeWAbkuGJn8I2pNXxy2fTQ+gd986vIQiCIAiCIAiCIAjygfwPAGaXhzenM/IAAAAASUVORK5CYII=;" vertex="1" parent="1">
          <mxGeometry x="560" y="430" width="80" height="80" as="geometry" />
        </mxCell>
        <mxCell id="9XECiPMP4aSuoiCzD9ek-20" value="" style="shape=singleArrow;direction=west;whiteSpace=wrap;html=1;" vertex="1" parent="1">
          <mxGeometry x="490" y="450" width="60" height="20" as="geometry" />
        </mxCell>
        <mxCell id="9XECiPMP4aSuoiCzD9ek-22" value="" style="shape=image;imageAspect=0;aspect=fixed;verticalLabelPosition=bottom;verticalAlign=top;image=data:image/png,iVBORw0KGgoAAAANSUhEUgAAAOoAAADYCAMAAADS+I/aAAAA0lBMVEX///84fvpAUtc8Ttb7/P81Sdajquk5TNYtQ9UkdfkwRdUpdvgpQNR8kurf5/xgeuXEyPHs7vs3W+Bve9+EjuMmPtTa3fYvS9ivtew7XuDs8/91gOBaZ9u2u+3LzvIvevqWnua5yPfi5PjQ3Px8iuTn7Pz0+P8xVN6Ep/mPrvnD0vvN0fOlsu+nv/qPn+tcj/h5n/hDgvmfufppl/lWcOK+zvqvw/qcp+sWNNOQmOVLZd8AK9J4kOtTcuVqhOg/gfkMbvhQiPhhkfiKqvc9ZOS9we65q+3wAAALv0lEQVR4nO2de0PaOh+AISFLGioIUm5TClbKFES3oVy2edx2/P5f6U3v9xvo28vJ889qV0Ke9pdbSdNajcPhcDgcDofD4XA4HA6Hw+FwOBwOh/MfozHOOwf/L+6Flr19l2M+PhzlQXCp/mr3c8zLhzJ/FOp1l2obSWs1x/x8GI17Qa57VSFAi1WOWfog7n436/WAKgB0VLEiO38Q6vVQVQDETSfHnL0z6q0lGqYKoFiZIvssN+txqgCg0TDH/L0bra8u0QhVAOmlkmMe3wX1UajXk1W1KH4pd5H9Jsv1dKoAYHGbY05P5M4buwmqrMgOrnLM7Qm0/ggB0XhVAMimhEWWNTD+2E2hCiDpla3Izv4Jxm4aVRbFeNXIMeNZUR7CYjedqtZXnOSY90yoXyJFU6myKN60YtIvDvfhhTSDqib7kqNBSpR6RCHNpMpaWVLw4d08upBmVGVF9nCeo0kSt0miWVRZX/FzUYvsfULsZlVlUVzMOzLK7+RLmlWVtbLoOUenUDr+Ecw7qWqtbLHuK8Y3MCepsoanXZy+YtgI5v1U9TsyxegrttLG7tGqrMiCIgzvGq9pY1ej+Y/zm80vnFq1GH3FRoZrKsvu+lQZ0fSugOZ/jyKD6uujr5VcYZQ+hj/l4+citarwOxiC456UtsCWR7UphP9gcb0h6WTLoioL3yKbizeQKopLoio8xlafW5KiLi6FavNr0o9t456YGMUlUJXr0bHroCQW2eKrCl9SzvO4SiiyRVcVfqe/ha1OY6O42Kpy8ylTUuN2jGyRVeXml8yJ9aP7ikVW/X7UZKy3qL5igVWbR6an9sIb2VKpXm233nkAjel2Ow3cJ5uEx3CpVH8SeuHZ0aZIWgYOO6+A6hmGHtUXBKSQtqiCqmsKQq5pFVU/iSB88kPlVFcSIOG3UKqm+hx1TSun2pcA3UckWC3VPgGoHZVgpVRbFOJNZIJVUp3jONMqqTYuMTzEJFgdVc10EHcLpjqqGzZwib1/WBnVtjYc/U+oTlnlC2KLakVUAcSofYYAOotJsCKqgLKewwECcRadYEVU0bqmtatMOXp6QzVUodEbnJG44loRVbMPvEfG9Q2lWqpacaVRv1lVTLUjAQAj7hNXTLU2kQC+CByhUzVVrbhGzPitnGrtEobeGq2iamcAwCJsCuwyfLpAiVVr5yLAoTP0W21SMdXaOrK4rgbBC1tqVb11DR/PqZ/FUqsGfp4aE0RBxA2JJ4pLrDqbTn1TXZXpdho1WaJx453zUmBV+fHUudnKAZVDtS7LaSYsxSa9prAUqmmmofkINLPKhpZDtV4XvmeYmz1/lIOnZmXNoi26al0W/qaNYu2pDsE/OZqdAHNKXuFVNdmY+0gOd039qQ65HnyE6A3gcqiGT+/2MXeeSxf+BMax6gspiWrIpH1fEl9ePWFwHzjiCaCSqNblZjD7Ns/+xSOEh7n/GHW9K4mq9oBNRMPTD3lsMOzCKvkv85L+iYw/gWvFusHfwz8uPBTroT+d9M/ZyMKtv8h+i35sULjNRSeOTE9PeZuSp6jFI3SaX4t2YbM9Eyc82COZVkTsOrwW7cL2Ex+l98p+0Uc86m1g0Z4gmTvRH058IPqRmyyKZ810sRDSU8yZiLVpIi9W6KI94ScmZAiQL1GNxunIr3/zlvOjZIri1DR/F+2qasxSVDQZkYVveVuFM/6bqcgm0zz5/tTHobxnkc3y6FUezDIsnBBL2CC9YEQtipYRoXD1bhjq6VEcMmItKMrXk2Sb9WyPDeZL4M5CeuRmQRuYKNTHI4us8L1ovd5kwlenTBJ9KHYDE8WdnLHhkZup7hkXkUZwJdk40eANmTIxT79CkfCQ/9o7p2EtzZ5A82uZGpgo7pOjWJZL1sBEEbsIqR67j2XpHCUTs7QsEy3cXdDTeKpHRLF3Za1q8Df0hvHrbTEWs3tfOsERT/kbmCh8K+o2m0W8RfZePDu3uuNW1qoEY6vhqVIDE4WijXiaBb9F9l7M6nLMfIFq0Sju7V0Oh8PhcDgcDofD4XA4HA6Hw+FwOJyPQl0ul0f8lPnSHXXfPzMZ+dUdOSyMNwufdRfORBFl0f3X2j6/FAklpLvKOKttPICQ5P7W4i4EyEYy3sjaw6KtqiJorwPTFiEihCBMYbZXt85ot4tv3i3PR9IFeD+12BuGPUwsVfUA7eUf2wh3p/1+f7ihUIpb/zLACzrbIpj3b/hdOAhEo0v1BtnrGG0p3JiH9g/SdYbvGA/oeZ/kHsFMNbCigKO6ps6a4AMInJOSacLijEpqjeYewbGq5xK2TVUJRq6EnsALvmTxgZ0zpU4m2vZy3+tNjW8fD3u9vSdSlp96vd7WnovUnzjY74hobdkxK9ecj8lE+8C19tFgDMWp3hG4sNMZi8eqqlRbiOGcUrsua+12k5pyECnCCGsBspaoVivabwpQt4RQyvZJPXPPhUQMKCWSsavTlhDSjrmxawEkrWvztsQ+icXAYmkxqiqAyDXDSwLwuJnTMypea+tcORHcImi4kkTcYxUc3I3HlxLevEAMpDfj/5dMCF/s9xes+jc/9NlZQwj/NA6CGKPDzQFhPLCyyerYa0Jw+6ZLAfXXnNGqjX+h50XKNxgfd1lf8Ej7p42xdfZbBBzI4Zz92QIQnx3oVtUPgCPj/1XavdKPbSEgel9p0iFgYG2gGy3m5m1kL14OIKBIT+yNAMl3ZaJVewj33Hv7BODDEXNQVYr1FzsMkR3BTBVfGBm5owAjs5BCIJpTkBTrpAx9mahtIDGm2F1gO0rYpnGha+yawydLgr55M9IFg+W1iVUuddW1thKT57ysRADFTeb3vrP41QXGop23FoEjU0aFwGnZMPK/3JfVEJfuv7fUXNG6LwJq5W48AJKRd+D0d+4o9i2m2wWAmgXe7hYw1esnFh/Qd0avKGIdvNE2W5FtY2BuQNSwVe2ycAkla3OFUGDJERavrq9rUbgw0tgj5LzuZI+R0foDCK19cxF/9iYVrop7GIjPG0i9ATuejlg9glAW2bmEzReTbO0IjlC9CqgulywfrklYrO/Wt7aIM9/ujprpsZJv7euEqKInxcRKk3liQNa1vuSNHo3ZRmS9Zpp+Wt8KWeerZdfBaVTnbzdwJ0nArTqlaGpsqWy/c747ollXxauGdgwBQFpB32MxWDT72jqeu9SuBwi6Cx0WQKZVsmr/syRKYLNfuVVbkr1uN6t/7Y8ZhVXfSFINqYGB8T4RliAO6aQrXWhXK0nMWRLWwAkDepVOdSsiuNfP5sKlOoJ2DdahbtW5eLwqPBg7V3bEePPfhSRlTbxCeP/JZIpMwyTVlYjbZnPgUnXXRI0ulJyT3ScpAzhElU6sFK1q3AvL1DTRUucAacP1h6h/WYJqAzojC0d1SawehvExV31xhaDxVpsjVO1AGZLQAcky/GoHmRP3OttnZsOZoKoQbHfqbFXtOrq6qVvkWoP+AprhcIoqawzFkAcAmGrUq628sPrX1WdZUuPsJ6i6a+KBpXqGiLslUlzVSIsCI1pOU11a3RXV/dKCMyymG2izkHU1iw3zNQ8JqksnlM6sdnXiH0O2nS45KyRTY+uIxsZRZb01qvVExiM0smsihQYb3FBavgPNCE4qq8DsLCoHCRqqDVZ7T9SOiXY5xwuIN9pRrUuMD2oaVYBXM5tlUHVOoDZ4U9l4S2xfddSG2l9TSNL1+1mJ8qw7PTG6NYk1sARo+9PZSJJWa6yr9hALCNFkp0dUa4Ag2WwuRUgt0yRV1vexIN2gKqvjjUqCZRsjcbEYEIQGKUc4I+mHpwJXd+KO7Wj9kH65DrE2h7udeWJWbNQuitJFv/a2+6GptiXRwVCtqXuWc0QJ/GTX8USyz1vnh+R78cDAnYa00PfdSD/6nkOMvlFnPRK1xMlgnfKFvo15x/cUAYs+VXu2wNlvxqOed/0/debDn6uhdpYaZrh23Fgf6AxXP4eThid517Yvlx0v1le6+0JODhrXQ4ZS5se4ORwOh8PhcDgcDodj8j9yYAlYiXNfCgAAAABJRU5ErkJggg==;" vertex="1" parent="1">
          <mxGeometry x="384.21" y="420" width="97.5" height="90" as="geometry" />
        </mxCell>
        <mxCell id="9XECiPMP4aSuoiCzD9ek-26" value="" style="endArrow=classic;html=1;rounded=0;" edge="1" parent="1">
          <mxGeometry width="50" height="50" relative="1" as="geometry">
            <mxPoint x="457.91" y="180" as="sourcePoint" />
            <mxPoint x="458" y="238.53" as="targetPoint" />
            <Array as="points" />
          </mxGeometry>
        </mxCell>
        <mxCell id="9XECiPMP4aSuoiCzD9ek-27" value="&lt;b&gt;&lt;font style=&quot;font-size: 14px&quot;&gt;Source Code Management&lt;/font&gt;&lt;/b&gt;" style="text;html=1;strokeColor=none;fillColor=none;align=center;verticalAlign=middle;whiteSpace=wrap;rounded=0;" vertex="1" parent="1">
          <mxGeometry y="420" width="140" height="50" as="geometry" />
        </mxCell>
        <mxCell id="9XECiPMP4aSuoiCzD9ek-28" value="&lt;b&gt;&lt;font style=&quot;font-size: 16px&quot;&gt;Jenkins&lt;/font&gt;&lt;/b&gt;" style="text;html=1;strokeColor=none;fillColor=none;align=center;verticalAlign=middle;whiteSpace=wrap;rounded=0;" vertex="1" parent="1">
          <mxGeometry x="401.65999999999997" y="50" width="110" height="30" as="geometry" />
        </mxCell>
        <mxCell id="9XECiPMP4aSuoiCzD9ek-29" value="&lt;b&gt;Testing&lt;/b&gt;" style="text;html=1;strokeColor=none;fillColor=none;align=center;verticalAlign=middle;whiteSpace=wrap;rounded=0;fontSize=14;" vertex="1" parent="1">
          <mxGeometry x="421.71" y="270" width="60" height="30" as="geometry" />
        </mxCell>
        <mxCell id="9XECiPMP4aSuoiCzD9ek-30" value="&lt;b&gt;&lt;font style=&quot;font-size: 14px&quot;&gt;Built Image and Push to Private Repo&lt;/font&gt;&lt;/b&gt;" style="text;html=1;strokeColor=none;fillColor=none;align=center;verticalAlign=middle;whiteSpace=wrap;rounded=0;fontSize=14;" vertex="1" parent="1">
          <mxGeometry x="530" y="260" width="150" height="40" as="geometry" />
        </mxCell>
        <mxCell id="9XECiPMP4aSuoiCzD9ek-31" value="&lt;b&gt;&lt;font style=&quot;font-size: 14px&quot;&gt;Provision Server&lt;/font&gt;&lt;/b&gt;" style="text;html=1;strokeColor=none;fillColor=none;align=center;verticalAlign=middle;whiteSpace=wrap;rounded=0;fontSize=14;" vertex="1" parent="1">
          <mxGeometry x="550" y="520" width="100" height="30" as="geometry" />
        </mxCell>
        <mxCell id="9XECiPMP4aSuoiCzD9ek-32" value="&lt;b&gt;&lt;font style=&quot;font-size: 14px&quot;&gt;Deploy to EKS&lt;/font&gt;&lt;/b&gt;" style="text;html=1;strokeColor=none;fillColor=none;align=center;verticalAlign=middle;whiteSpace=wrap;rounded=0;fontSize=16;" vertex="1" parent="1">
          <mxGeometry x="380" y="520" width="110" height="30" as="geometry" />
        </mxCell>
      </root>
    </mxGraphModel>
  </diagram>
</mxfile>
